<svg xmlns="http://www.w3.org/2000/svg" id="Capa_1" height="512" viewBox="0 0 512 512" width="512"><g><g><g><g><path d="m386.349 129.048h-151.967v-91.548c0-16.569 13.431-30 30-30h91.968c16.569 0 30 13.431 30 30v91.548z" fill="#e19974"></path><path d="m356.349 7.5h-30c16.569 0 30 13.431 30 30v91.548h30v-91.548c0-16.569-13.431-30-30-30z" fill="#dc8758"></path><g><path d="m451.279 439.334h51.87l-31.364-132.398c-4.609-19.458-19.889-34.549-39.325-38.843l-69.904-15.441-17.735-.604c-7.93-1.752-13.579-8.813-13.579-16.973v-52.931h-41.754v52.931c0 8.16-5.649 15.221-13.579 16.973l-17.735.604-69.904 15.441c-19.437 4.293-34.716 19.385-39.325 38.843l-31.364 132.398" fill="#b3dafe"></path><g><path d="m342.886 269.934 59.574 13.16c19.437 4.293 34.716 19.385 39.325 38.843l27.811 117.398h33.553l-31.364-132.398c-4.609-19.458-19.889-34.549-39.325-38.843l-69.904-15.441z" fill="#8ac9fe"></path></g><path d="m490.284 466.136-70.214 21.421-9.067-43.691 68.795-16.571c10.758-2.591 21.568 4.073 24.147 14.885 2.47 10.36-3.518 20.861-13.661 23.956z" fill="#ffcebf"></path><path d="m503.945 442.18c-2.578-10.812-13.389-17.476-24.146-14.885l-13.603 3.276c3.746 2.72 6.587 6.737 7.749 11.609 2.47 10.36-3.518 20.861-13.66 23.955l-42 12.814 1.786 8.608 70.214-21.421c10.142-3.095 16.13-13.596 13.66-23.956z" fill="#ffb09e"></path></g><g><path d="m130.449 466.136 70.214 21.421 9.067-43.691-68.795-16.571c-10.758-2.591-21.568 4.073-24.147 14.885-2.47 10.36 3.518 20.861 13.661 23.956z" fill="#ffcebf"></path></g><path d="m258.175 252.653c12.007 15.763 30.912 25.938 52.191 25.938s40.183-10.175 52.191-25.938l-17.735-.604c-7.93-1.752-13.579-8.813-13.579-16.973v-52.931h-56.754v52.931c0 8.16-5.649 15.221-13.579 16.973z" fill="#ffcebf"></path><path d="m329.821 267.048 13.065 2.886c7.651-4.394 14.341-10.285 19.67-17.282l-2.735-.604c-7.93-1.752-13.579-8.813-13.579-16.973v-52.931h-30v67.931c0 8.161 5.649 15.222 13.579 16.973z" fill="#ffb09e"></path><path d="m386.349 102.654c-6.503-1.875-17.202-5.857-27.996-14.587-9.473-7.662-15.429-16.077-19.001-22.275-1.085-1.883-3.609-2.309-5.241-.88-7.188 6.298-16.214 13.026-27.252 19.051-28.86 15.753-56.398 18.468-72.477 18.69v48.691c0 28.997 16.079 54.219 39.765 67.151 10.766 5.878 21.658 5.474 34.772 5.474 0 0 26.668.466 37.363-5.31 23.851-12.882 40.067-38.195 40.067-67.315z" fill="#ffcebf"></path><path d="m358.353 88.067c-9.494-7.679-15.456-16.115-19.025-22.316-1.078-1.872-3.59-2.263-5.215-.84-4.703 4.121-10.21 8.423-16.536 12.596 2.947 3.492 6.5 7.102 10.776 10.56 4.898 3.962 9.777 6.946 14.253 9.199 8.379 4.217 13.743 12.708 13.743 22.088v31.991c.227 4.806.888 29.179-17.45 48.692-25.253 26.872-62.596 19.055-64.411 18.643 7.411 3.883 17.322 7.695 29.295 8.748 2.279.201 4.476.287 6.581.285 41.965 0 75.984-34.191 75.984-76.369v-48.691c-6.502-1.874-17.201-5.856-27.995-14.586z" fill="#ffb09e"></path><path d="m395.637 138.705h-9.288v-36.05h9.288c9.93 0 17.98 8.05 17.98 17.98v.091c0 9.929-8.05 17.979-17.98 17.979z" fill="#ffcebf"></path><path d="m225.094 138.705h9.288v-36.05h-9.288c-9.93 0-17.98 8.05-17.98 17.98v.091c0 9.929 8.05 17.979 17.98 17.979z" fill="#ffb09e"></path><g><g><g><path d="m186.348 474.5h248.035c4.856 0 8.792 4.477 8.792 10v10c0 5.523-3.936 10-8.792 10h-248.035c-4.856 0-8.792-4.477-8.792-10v-10c0-5.523 3.937-10 8.792-10z" fill="#355f7f"></path><path d="m434.383 474.5h-30c4.855 0 8.792 4.477 8.792 10v10c0 5.523-3.936 10-8.792 10h30c4.855 0 8.792-4.477 8.792-10v-10c0-5.523-3.937-10-8.792-10z" fill="#305972"></path><g><path d="m416.733 474.5h-212.735c-14.603 0-26.442-11.838-26.442-26.442v-119.423c0-14.603 11.838-26.442 26.442-26.442h212.734c14.603 0 26.442 11.838 26.442 26.442v119.423c.001 14.604-11.838 26.442-26.441 26.442z" fill="#3f6e90"></path></g><path d="m416.733 302.193h-30c14.604 0 26.442 11.838 26.442 26.442v119.423c0 14.604-11.838 26.442-26.442 26.442h30c14.604 0 26.442-11.838 26.442-26.442v-119.423c0-14.604-11.839-26.442-26.442-26.442z" fill="#355f7f"></path></g></g><ellipse cx="310.366" cy="391.838" fill="#fff" rx="28.573" ry="28.718"></ellipse></g></g></g><g><path d="m137.794 223.393h-10.005c-2.261 0-4.095 1.833-4.095 4.095v12.822c0 3.27-3.645 5.221-6.366 3.407l-16.138-18.948c-1.345-.897-2.926-1.375-4.542-1.375h-64.581c-13.568 0-24.567-10.999-24.567-24.567v-60.113c0-13.568 10.999-24.567 24.567-24.567h105.727c13.568 0 24.567 10.999 24.567 24.567v60.113c0 13.567-10.999 24.566-24.567 24.566z" fill="#b3dafe"></path><path d="m137.794 114.146h-30c13.568 0 24.567 10.999 24.567 24.567v60.113c0 13.568-10.999 24.567-24.567 24.567h-10.005c-.165 0-.322.03-.482.049 1.384.112 2.723.553 3.884 1.327l16.138 18.948c2.721 1.814 6.366-.137 6.366-3.407v-12.822c0-2.261 1.833-4.094 4.094-4.094h10.005c13.568 0 24.567-10.999 24.567-24.567v-60.113c0-13.569-10.999-24.568-24.567-24.568z" fill="#8ac9fe"></path></g></g><path d="m125.07 250.533c3.777-2.021 6.124-5.939 6.124-10.223v-9.416h6.6c17.682 0 32.067-14.385 32.067-32.067v-60.113c0-17.682-14.386-32.067-32.067-32.067h-105.727c-17.681-.001-32.067 14.385-32.067 32.066v60.113c0 17.682 14.386 32.067 32.067 32.067h64.488l15.063 17.687c3.24 3.715 9.247 4.203 13.452 1.953zm-28.422-34.639h-64.581c-9.411 0-17.067-7.656-17.067-17.067v-60.113c0-9.411 7.656-17.067 17.067-17.067h105.727c9.411 0 17.067 7.656 17.067 17.067v60.113c0 9.411-7.656 17.067-17.067 17.067h-10.005c-6.394 0-11.595 5.201-11.595 11.594v3.33l-9.294-10.913c-2.418-2.772-6.686-3.999-10.252-4.011zm413.8 221.707-31.36-132.39c-5.238-22.109-22.904-39.555-45.011-44.445l-72.641-16.04c-4.46-.984-7.696-5.041-7.696-9.646v-12.102c24.032-14.741 40.109-41.335 40.109-71.633v-5.141c14.526.647 27.268-10.552 27.268-25.571 0-14.82-12.573-26.333-27.268-25.479v-57.654c0-20.678-16.822-37.5-37.5-37.5h-91.968c-20.678 0-37.5 16.822-37.5 37.5v57.654c-14.654-.731-27.268 10.615-27.268 25.57 0 14.536 12.573 26.534 27.268 25.48v5.141c0 30.298 16.077 56.892 40.108 71.633v12.102c0 4.605-3.236 8.662-7.697 9.646l-72.644 16.041c-22.098 4.888-39.76 22.333-44.997 44.443l-31.37 132.39c-.758 3.023-1.552 6.046-1.552 9.279 0 12.238 7.847 22.86 19.531 26.434l41.795 12.75v8.436c0 9.649 7.309 17.5 16.292 17.5h248.034c8.983 0 16.292-7.851 16.292-17.5v-8.437l41.799-12.751c11.681-3.571 19.528-14.186 19.528-26.411 0-3.096-.882-6.287-1.552-9.299zm-116.598-327.447c6.342-.784 12.268 3.971 12.268 10.57 0 6.416-5.91 11.308-12.268 10.48zm-166.968 21.051c-6.379.799-12.268-3.976-12.268-10.571 0-6.471 5.967-11.269 12.268-10.479zm15 20.14v-41.453c12.957-.738 25.672-2.946 37.892-6.585 3.97-1.182 6.229-5.359 5.048-9.329-1.182-3.969-5.355-6.228-9.329-5.047-10.834 3.226-22.111 5.193-33.61 5.912v-57.343c0-12.407 10.094-22.5 22.5-22.5h91.968c12.406 0 22.5 10.093 22.5 22.5v54.429c-5.636-2.529-10.921-5.763-15.78-9.693-6.94-5.614-12.733-12.406-17.22-20.189-1.646-2.854-4.45-4.799-7.695-5.337-3.239-.538-6.515.396-8.985 2.562-7.185 6.295-14.985 11.875-23.184 16.586-3.592 2.063-4.83 6.648-2.767 10.239 2.063 3.592 6.648 4.83 10.239 2.767 7.678-4.412 15.036-9.511 21.93-15.194 5 7.675 11.123 14.464 18.249 20.229 7.606 6.152 16.067 10.918 25.213 14.208v43.239c0 37.974-30.722 68.869-68.484 68.869-37.763-.001-68.485-30.896-68.485-68.87zm107.839 104.339c-10.655 9.888-24.543 15.407-39.356 15.407s-28.701-5.519-39.356-15.407c6.665-4.537 10.981-12.202 10.981-20.603v-4.862c8.863 3.228 18.417 4.995 28.375 4.995s19.512-1.767 28.375-4.995v4.861c0 8.402 4.316 16.066 10.981 20.604zm-174.645 216.228-42.432-12.944c-5.248-1.605-8.913-6.576-8.913-12.088 0-8 7.677-14.212 15.443-12.289l30.883 7.437v6.03c0 8.183 2.911 15.699 7.752 21.567-.987.657-1.9 1.428-2.733 2.287zm260.599 22.588c0 1.556-.897 2.5-1.292 2.5h-248.034c-.395 0-1.292-.944-1.292-2.5v-10c0-1.556.897-2.5 1.292-2.5h248.034c.395 0 1.292.944 1.292 2.5zm-258.118-119.674c4.143 0 7.5-3.358 7.5-7.5v-38.691c0-10.445 8.497-18.942 18.941-18.942h212.734c10.445 0 18.942 8.497 18.942 18.942v119.423c0 10.444-8.497 18.942-18.942 18.942h-212.734c-10.444 0-18.941-8.498-18.941-18.942v-45.732c0-4.142-3.357-7.5-7.5-7.5s-7.5 3.358-7.5 7.5v24.273l-27.364-6.589c-4.284-1.036-8.655-1.021-12.823-.018l26.378-111.323c3.92-16.548 17.125-29.602 33.639-33.255l65.401-14.442c13.92 16.021 33.73 25.119 55.078 25.119s41.157-9.098 55.078-25.119l65.397 14.44c16.522 3.655 29.731 16.709 33.652 33.256l26.37 111.323c-4.166-1.002-8.536-1.017-12.818.017l-27.369 6.59v-97.964c0-18.716-15.227-33.942-33.942-33.942h-212.736c-18.716 0-33.941 15.226-33.941 33.942v38.691c0 4.143 3.357 7.501 7.5 7.501zm310.535 84.14-42.436 12.946c-.833-.859-1.746-1.63-2.733-2.287 4.841-5.868 7.752-13.384 7.752-21.567v-6.031l30.887-7.438c7.7-1.917 15.438 4.286 15.438 12.31 0 5.501-3.665 10.464-8.908 12.067zm-442.175-297.696h78.027c4.143 0 7.5-3.358 7.5-7.5s-3.357-7.5-7.5-7.5h-78.027c-4.143 0-7.5 3.358-7.5 7.5s3.357 7.5 7.5 7.5zm85.527 22.5c0-4.142-3.357-7.5-7.5-7.5h-78.027c-4.143 0-7.5 3.358-7.5 7.5s3.357 7.5 7.5 7.5h78.027c4.143 0 7.5-3.358 7.5-7.5zm197.206 13.035c3.627-2 4.946-6.561 2.947-10.188-2-3.627-6.561-4.947-10.189-2.947-2.37 1.307-6.195 2.849-11.043 2.849-.079 0-.159 0-.239-.001-4.75-.05-8.497-1.577-10.804-2.848-3.628-2.001-8.189-.68-10.189 2.947-1.999 3.627-.68 8.189 2.947 10.189 5.588 3.082 11.921 4.713 18.286 4.713 8.031-.001 14.363-2.553 18.284-4.714zm-18.285 231.251c19.891 0 36.073-16.247 36.073-36.218s-16.183-36.218-36.073-36.218-36.073 16.247-36.073 36.218 16.183 36.218 36.073 36.218zm0-57.436c11.62 0 21.073 9.518 21.073 21.218s-9.453 21.218-21.073 21.218-21.073-9.518-21.073-21.218 9.453-21.218 21.073-21.218zm-36.66-253.267c-4.143 0-7.5 3.358-7.5 7.5v14.738c0 4.142 3.357 7.5 7.5 7.5s7.5-3.358 7.5-7.5v-14.738c0-4.143-3.357-7.5-7.5-7.5zm73.321 29.738c4.143 0 7.5-3.358 7.5-7.5v-14.738c0-4.142-3.357-7.5-7.5-7.5s-7.5 3.358-7.5 7.5v14.738c0 4.142 3.358 7.5 7.5 7.5z"></path></g></svg>