<svg xmlns="http://www.w3.org/2000/svg" height="511pt" viewBox="-7 0 511 511.99989" width="511pt"><path d="m193.550781 391.789062h53.089844c27.21875 0 49.277344 22.058594 49.277344 49.273438v63.335938h-277.738281v-63.335938c0-27.214844 22.058593-49.273438 49.277343-49.273438h53.085938" fill="#515f75"></path><path d="m96.328125 391.789062 32.082031 112.609376h57.28125l32.085938-112.609376" fill="#f2f2f2"></path><path d="m193.558594 328.519531v63.273438l-36.507813 20.566406-11.277343-6.351563-25.226563-14.214843v-63.3125l25.226563.007812zm0 0" fill="#f9c2af"></path><path d="m128.613281 504.398438 29.007813-35.835938 28.070312 35.835938" fill="#f74866"></path><path d="m145.773438 328.488281-25.226563-.007812v63.3125l25.226563 14.214843v-29.277343c3.730468.367187 7.503906.574219 11.328124.574219 12.742188 0 25.007813-2.078126 36.457032-5.921876v-42.863281zm0 0" fill="#ea9e8f"></path><path d="m42.515625 261.902344c-19.007813 0-34.417969-13.792969-34.417969-30.808594s15.410156-30.808594 34.417969-30.808594h137.359375c19.007812 0 34.417969 13.792969 34.417969 30.808594s-15.410157 30.808594-34.417969 30.808594" fill="#ea9e8f"></path><path d="m271.691406 132.863281v114.589844c0 63.289063-51.300781 114.589844-114.589844 114.589844-63.285156 0-114.589843-51.300781-114.589843-114.589844v-114.589844" fill="#f9c2af"></path><path d="m156.289062 362.039062c-31.324218-.210937-59.648437-12.996093-80.214843-33.554687-20.734375-20.746094-33.5625-49.382813-33.5625-81.03125v-114.59375h51.59375v114.59375c0 31.644531 7.046875 60.285156 18.449219 81.03125 11.222656 20.414063 26.660156 33.15625 43.734374 33.554687zm0 0" fill="#ea9e8f"></path><path d="m243.289062 163.996094c-41.519531 14.964844-81.71875 9.925781-110.148437 2.003906 0 0-.007813 0-.007813-.011719-24.757812-6.898437-40.585937-15.996093-40.585937-15.996093s-10.453125 50.289062-50.035156 50.289062c0 0-26.328125-46.578125-25.503907-89.671875.429688-22.347656 18.855469-39.0625 39.800782-39.0625 3.910156 0 7.914062.578125 11.894531 1.824219 11.21875-30.125 40.855469-49.1875 72.9375-47.238282 5 .3125 10.027344.707032 15.074219 1.167969.964844.078125 1.941406.167969 2.90625.257813.097656.007812.199218.019531.296875.027344 52.375 4.917968 105.421875 14.496093 136.589843-19.988282 0 0 51.515626 118.671875-53.21875 156.398438zm0 0" fill="#515f75"></path><path d="m141.640625 26.132812c5 .308594 10.027344.707032 15.074219 1.164063-46.210938-1.949219-82.925782 99.816406-23.585938 138.691406-24.757812-6.898437-40.585937-15.996093-40.585937-15.996093s-10.449219 50.289062-50.03125 50.289062c0 0-26.332031-46.578125-25.503907-89.671875.425782-22.347656 18.851563-39.0625 39.796876-39.0625 3.914062 0 7.914062.578125 11.898437 1.820313 11.21875-30.121094 40.855469-49.183594 72.9375-47.234376zm0 0" fill="#3b485b"></path><path d="m131.9375 437.476562 24.351562 31.085938 25.167969-31.085938-24.40625-25.117187z" fill="#f74866"></path><path d="m159.9375 27.597656c-.109375-.019531-.207031-.03125-.316406-.039062.097656.007812.199218.019531.296875.027344zm0 0" fill="#f4af9d"></path><path d="m206.984375 285.359375c0 10.074219-8.167969 18.238281-18.238281 18.238281h-.761719c-5.035156 0-9.597656-2.046875-12.898437-5.339844-3.292969-3.300781-5.339844-7.863281-5.339844-12.898437 0-10.074219 8.164062-18.238281 18.238281-18.238281h.761719c5.035156 0 9.59375 2.046875 12.898437 5.339844 3.304688 3.300781 5.339844 7.863281 5.339844 12.898437zm0 0" fill="#3b485b"></path><path d="m206.984375 285.359375h-37.238281c0-10.074219 8.164062-18.238281 18.238281-18.238281h.761719c5.035156 0 9.59375 2.046875 12.898437 5.339844 3.304688 3.300781 5.339844 7.863281 5.339844 12.898437zm0 0" fill="#fff"></path><path d="m410.921875 212.859375v144.316406l-170.574219-40.554687v-63.203125zm0 0" fill="#ffc627"></path><path d="m410.921875 302.816406v54.359375l-170.574219-40.554687v-23.074219zm0 0" fill="#eaad18"></path><path d="m352.914062 373.5625v47.503906h-57v-47.503906c0-5.25 4.257813-9.496094 9.496094-9.496094h38.011719c5.238281 0 9.492187 4.246094 9.492187 9.496094zm0 0" fill="#f4af9d"></path><path d="m352.914062 373.5625v47.503906h-34.027343v-47.503906c0-5.25 4.246093-9.496094 9.496093-9.496094h15.039063c5.238281 0 9.492187 4.246094 9.492187 9.496094zm0 0" fill="#f9c2af"></path><path d="m295.917969 421.0625h56.996093v83.335938h-56.996093zm0 0" fill="#515f75"></path><path d="m295.917969 421.0625h22.796875v83.335938h-22.796875zm0 0" fill="#3b485b"></path><path d="m230.800781 228.472656v-15.925781c0-4.195313-3.402343-7.597656-7.597656-7.597656-4.199219 0-7.601563 3.402343-7.601563 7.597656v15.925781c0 4.195313 3.402344 7.597656 7.601563 7.597656 4.195313 0 7.597656-3.402343 7.597656-7.597656zm0 0"></path><path d="m149.273438 228.472656v-15.925781c0-4.195313-3.402344-7.597656-7.597657-7.597656-4.199219 0-7.601562 3.402343-7.601562 7.597656v15.925781c0 4.195313 3.402343 7.597656 7.601562 7.597656 4.195313 0 7.597657-3.402343 7.597657-7.597656zm0 0"></path><path d="m188.746094 311.199219c14.246094 0 25.839844-11.589844 25.839844-25.835938 0-14.25-11.59375-25.839843-25.839844-25.839843h-.761719c-14.246094 0-25.835937 11.589843-25.835937 25.839843 0 14.246094 11.589843 25.835938 25.835937 25.835938zm-11.398438-25.835938c0-5.867187 4.773438-10.640625 10.636719-10.640625h.761719c5.867187 0 10.636718 4.773438 10.636718 10.640625 0 5.863281-4.769531 10.636719-10.636718 10.636719h-.761719c-5.863281 0-10.636719-4.773438-10.636719-10.636719zm0 0"></path><path d="m415.636719 206.898438c-1.824219-1.441407-4.207031-1.96875-6.46875-1.433594l-129.871094 30.878906v-83.097656c12.789063-9.894532 22.40625-22.195313 28.726563-36.824219 21.699218-50.242187-3.464844-109.355469-4.542969-111.847656-1.03125-2.371094-3.191407-4.054688-5.742188-4.472657-2.550781-.421874-5.136719.484376-6.867187 2.402344-4.085938 4.515625-8.789063 8.371094-13.976563 11.449219-3.609375 2.144531-4.800781 6.808594-2.65625 10.417969 2.140625 3.609375 6.804688 4.796875 10.414063 2.65625 3.015625-1.789063 5.898437-3.789063 8.632812-5.976563 5.796875 18.167969 14.878906 56.800781.757813 89.414063-9.253907 21.367187-27.195313 36.972656-53.324219 46.386718-73.320312 26.414063-143.695312-13.054687-144.386719-13.449218-2.109375-1.214844-4.671875-1.335938-6.890625-.34375-2.222656.992187-3.832031 2.992187-4.335937 5.371094-.089844.421874-8.871094 40.273437-38.152344 43.984374-6.125-12.054687-22.980469-48.363281-22.34375-81.660156.191406-10.203125 5.058594-19.488281 13.351563-25.472656 8.316406-6 18.703124-7.695312 28.492187-4.652344 3.855469 1.199219 7.972656-.824218 9.378906-4.605468 10.074219-27.066407 36.347657-44.058594 65.347657-42.296876 11.039062.671876 22.460937 1.84375 33.507812 2.976563 26.039062 2.667969 52.964844 5.425781 76.507812 1.757813 4.148438-.644532 6.984376-4.53125 6.339844-8.679688-.648437-4.144531-4.53125-6.980469-8.679687-6.339844-21.605469 3.367188-46.382813.828125-72.621094-1.859375-11.199219-1.148437-22.78125-2.335937-34.132813-3.023437-33.480468-2.039063-63.976562 16.21875-77.917968 45.96875-12.300782-1.957032-24.792969.980468-35.117188 8.429687-12.203125 8.808594-19.367187 22.476563-19.65625 37.507813-.628906 33.058594 13.570313 67.347656 21.445313 83.742187-17.511719 4.632813-30.355469 19.410157-30.355469 36.894531 0 19.414063 15.84375 35.5 36.332031 38.046876 1.800781 10.078124 4.867188 19.871093 9.191407 29.28125 1.277343 2.785156 4.03125 4.429687 6.910156 4.429687 1.058594 0 2.140625-.226563 3.167968-.695313 3.8125-1.753906 5.484376-6.265624 3.730469-10.082031-6.449219-14.035156-9.71875-29.050781-9.71875-44.625v-40.128906c15.679688-2.332031 28.976563-11.984375 38.769531-28.273437 3.941407-6.558594 6.644532-13.097657 8.394532-18.152344 8.261718 3.859375 22.097656 9.5625 39.660156 13.960937 48.101562 12.039063 85.789062 4.625 108.933594-3.710937 6.511718-2.347656 12.585937-5.042969 18.226562-8.078125v76.882812l-25.507812 6.066407c-3.421875.8125-5.839844 3.875-5.839844 7.394531v63.203125c0 1.789062.628906 3.453125 1.6875 4.769531-20.140625 21.121094-47.792969 33.058594-77.335938 33.058594-28.578124 0-55.445312-11.128907-75.652343-31.332031-2.949219-2.953126-5.753907-6.105469-8.335938-9.375-2.601562-3.292969-7.382812-3.855469-10.675781-1.253907-3.292969 2.601563-3.855469 7.382813-1.253906 10.675781 2.949218 3.730469 6.148437 7.328126 9.515625 10.695313 12.230469 12.230469 26.59375 21.546875 42.25 27.601563v22.726562h-45.492188c-31.363281 0-56.878906 25.515625-56.878906 56.875v63.335938c0 4.199218 3.402344 7.601562 7.601563 7.601562h334.734374c4.199219 0 7.601563-3.402344 7.601563-7.601562v-107.621094c12.554687-9.234375 20.726563-23.019532 22.820313-38.347656l25.832031 6.140624c.582031.136719 1.171875.207032 1.757812.207032 1.691407 0 3.355469-.566406 4.710938-1.636719 1.824219-1.441406 2.886719-3.640625 2.886719-5.964844v-144.316406c0-2.324219-1.0625-4.523437-2.886719-5.960937zm-399.9375 24.195312c0-10.511719 8.117187-19.40625 19.210937-22.253906v38.609375c0 1.988281.054688 3.964843.148438 5.933593-11.167969-2.800781-19.359375-11.730468-19.359375-22.289062zm234.367187 95.648438 22.160156 5.269531c-2.027343 5.945312-3.101562 12.222656-3.101562 18.554687 0 16.53125 6.953125 31.925782 19.191406 42.816406v9.03125c-10.394531-11.199218-25.226562-18.226562-41.675781-18.226562h-45.484375v-22.683594c18.722656-7.214844 35.519531-19.050781 48.910156-34.761718zm95.246094 86.722656h-41.792969v-39.902344c0-1.042969.847657-1.894531 1.890625-1.894531h38.011719c1.042969 0 1.894531.847656 1.894531 1.894531v39.902344zm-240.28125 60.039062c-.730469-2.640625-2.824219-4.683594-5.480469-5.34375l-25.863281-6.46875 2.460938-62.304687h14.441406l27.753906 97.414062h-31.15625l15.894531-15.894531c1.933594-1.9375 2.679688-4.765625 1.949219-7.402344zm13.515625-74.117187 26.050781 14.679687-26.476562 26.476563-11.726563-41.15625zm77.011719 0h12.148437l-11.722656 41.15625-26.476563-26.476563zm-38.507813 23.71875 14.511719 14.511719-15.175781 18.746093-14.316407-18.273437zm-25.804687 25.808593 15.984375 20.40625-15.464844 19.105469-8.878906-31.15625zm51.125-.488281 8.847656 8.84375-8.746094 30.695313-15.792968-20.160156zm-24.847656 32.335938 12.5625 16.039062h-25.546876zm65.988281-81.375h14.4375l2.457031 62.304687-25.859375 6.46875c-2.65625.664063-4.75 2.703125-5.480469 5.34375-.730468 2.636719.011719 5.464844 1.949219 7.402344l15.894531 15.894531h-31.152344zm7.746093 80.261719 18.832032-4.707032c3.492187-.875 5.890625-4.078125 5.75-7.671875l-2.65625-67.363281c19.882812 3.148438 35.132812 20.402344 35.132812 41.15625v55.738281h-39.910156zm-74.160156-110c9.859375 0 19.527344-1.175782 28.859375-3.421876v21.125l-28.90625 16.285157-28.902343-16.285157v-21.140624c9.367187 2.265624 19.066406 3.4375 28.949218 3.4375zm-131.316406 71.414062c0-20.753906 15.25-38.007812 35.132812-41.15625l-2.65625 67.363281c-.140624 3.59375 2.257813 6.796875 5.75 7.671875l18.832032 4.707032-17.148438 17.152343h-39.910156zm319.53125 55.738281h-41.792969v-68.136719h41.792969zm15.203125-121.265625v-1.972656c0-9.425781-7.667969-17.09375-17.09375-17.09375h-38.011719c-8.039062 0-14.78125 5.582031-16.597656 13.070312-2.917969-5.792968-4.488281-12.253906-4.488281-18.972656 0-5.152344.957031-10.253906 2.773437-15.019531l81.332032 19.335937c-.761719 7.558594-3.511719 14.664063-7.914063 20.652344zm42.808594-27.976562-155.378907-36.945313v-51.195312l155.378907-36.941407zm0 0"></path><path d="m489.835938 269.527344h-37.488282c-4.199218 0-7.601562 3.402344-7.601562 7.601562 0 4.195313 3.402344 7.597656 7.601562 7.597656h37.488282c4.195312 0 7.601562-3.402343 7.601562-7.597656 0-4.199218-3.40625-7.601562-7.601562-7.601562zm0 0"></path><path d="m452.351562 228.699219c1.429688 0 2.875-.402344 4.160157-1.246094l29.386719-19.25c3.511718-2.300781 4.492187-7.011719 2.191406-10.523437-2.300782-3.511719-7.011719-4.492188-10.523438-2.191407l-29.386718 19.253907c-3.507813 2.300781-4.492188 7.011718-2.191407 10.519531 1.460938 2.226562 3.886719 3.4375 6.363281 3.4375zm0 0"></path><path d="m485.898438 346.054688-29.386719-19.253907c-3.511719-2.300781-8.222657-1.320312-10.523438 2.191407-2.300781 3.511718-1.316406 8.222656 2.191407 10.523437l29.386718 19.253906c1.285156.839844 2.730469 1.242188 4.160156 1.242188 2.476563 0 4.90625-1.207031 6.363282-3.4375 2.300781-3.507813 1.320312-8.21875-2.191406-10.519531zm0 0"></path></svg>