<svg xmlns="http://www.w3.org/2000/svg" height="512" viewBox="0 0 64 64" width="512"><g id="businessman-invesment-finance-currency-money"><path d="m34.51 35.38 2.92.732a9.992 9.992 0 0 1 7.57 9.698v15.19h-15.79z" fill="#58595b"></path><path d="m33 35 1.51.378v.002l-5.3 25.62h-1.21l-1.636-19.788-.206-2.485 2.842 2.273z" fill="#d1e7f8"></path><path d="m31 41h30v20h-30z" fill="#91dc5a"></path><path d="m31 41h30v20h-30z" fill="#91dc5a"></path><path d="m31 51h30v10h-30z" fill="#5eac24"></path><path d="m29 3h-4a4 4 0 0 0 -4 4 2 2 0 0 0 -2-2h-2a4 4 0 0 0 -4 4v9h22v-9a6 6 0 0 0 -6-6z" fill="#58595b"></path><path d="m12 19v1a2.006 2.006 0 0 0 2 2h2v-5h-2a2.006 2.006 0 0 0 -2 2z" fill="#ffbcab"></path><path d="m13.49 35.38-2.92.732a9.992 9.992 0 0 0 -7.57 9.698v15.19h15.79z" fill="#58595b"></path><path d="m24 42 2.364-.788-.206-2.485-2.158-1.727-2.158 1.727-.206 2.485z" fill="#d80027"></path><path d="m24 42-2.364-.788-1.636 19.788h8l-1.636-19.788z" fill="#ed1c24"></path><path d="m15 35-1.51.378v.002l5.3 25.62h1.21l1.636-19.788.206-2.485-2.842 2.273z" fill="#d1e7f8"></path><path d="m34 22a2.006 2.006 0 0 0 2-2v-1a2.006 2.006 0 0 0 -2-2h-2v5z" fill="#ffbcab"></path><path d="m55 44h-18a3 3 0 0 1 -3 3v8a3 3 0 0 1 3 3h18a3 3 0 0 1 3-3v-8a3 3 0 0 1 -3-3z" fill="#5eac24"></path><path d="m24 37-5-3-4 1 4 6z" fill="#006df0"></path><path d="m33 35-4-1-5 3 5 4z" fill="#006df0"></path><rect fill="#ee8700" height="6" rx="2" width="20" x="39" y="35"></rect><rect fill="#ffa733" height="6" rx="2" width="20" x="41" y="29"></rect><rect fill="#ffb655" height="6" rx="2" width="20" x="39" y="23"></rect><circle cx="49" cy="15" fill="#ff9811" r="8"></circle><path d="m30 13h-12a2 2 0 0 0 -2 2v8a8 8 0 0 0 16 0v-8a2 2 0 0 0 -2-2z" fill="#ffbcab"></path><path d="m29 34v-4.76a7.982 7.982 0 0 1 -10 0v4.76l5 3z" fill="#ffbcab"></path><circle cx="46" cy="51" fill="#e6e7e8" r="7"></circle><path d="m55 44h-18a3 3 0 0 1 -3 3v8a3 3 0 0 1 3 3h18a3 3 0 0 1 3-3v-8a3 3 0 0 1 -3-3z" fill="#5eac24"></path><path d="m34 51v4a3 3 0 0 1 3 3h18a3 3 0 0 1 3-3v-4z" fill="#4e901e"></path><circle cx="46" cy="51" fill="#f1f2f2" r="7"></circle><path d="m46 58a7 7 0 0 0 7-7h-14a7 7 0 0 0 7 7z" fill="#d1d3d4"></path><g fill="#231f20"><path d="m54 50h-2a1 1 0 0 0 0 2h2a1 1 0 0 0 0-2z"></path><path d="m40 50h-2a1 1 0 0 0 0 2h2a1 1 0 0 0 0-2z"></path><path d="m56 44a1 1 0 0 0 -1-1h-18a1 1 0 0 0 -1 1 2 2 0 0 1 -2 2 1 1 0 0 0 -1 1v8a1 1 0 0 0 1 1 2 2 0 0 1 2 2 1 1 0 0 0 1 1h18a1 1 0 0 0 1-1 2 2 0 0 1 2-2 1 1 0 0 0 1-1v-8a1 1 0 0 0 -1-1 2 2 0 0 1 -2-2zm-18.127 13a4.015 4.015 0 0 0 -2.873-2.874v-6.252a4.015 4.015 0 0 0 2.873-2.874h7.127v1.1c-1.741.327-3 1.477-3 2.9 0 1.682 1.757 3 4 3 1.221 0 2 .592 2 1s-.779 1-2 1-2-.592-2-1a1 1 0 0 0 -2 0c0 1.421 1.259 2.571 3 2.9v1.1zm19.127-2.874a4.015 4.015 0 0 0 -2.873 2.874h-7.127v-1.1c1.741-.327 3-1.477 3-2.9 0-1.682-1.757-3-4-3-1.221 0-2-.592-2-1s.779-1 2-1 2 .592 2 1a1 1 0 0 0 2 0c0-1.421-1.259-2.571-3-2.9v-1.1h7.127a4.015 4.015 0 0 0 2.873 2.874z"></path><path d="m62 33v-2a2.994 2.994 0 0 0 -2.22-2.88 3.02 3.02 0 0 0 .22-1.12v-2a3.009 3.009 0 0 0 -3-3h-2.36a9 9 0 1 0 -11.28 0h-2.36a3.009 3.009 0 0 0 -3 3v2a2.994 2.994 0 0 0 2.22 2.88 3.02 3.02 0 0 0 -.22 1.12v2a3.02 3.02 0 0 0 .22 1.12 2.971 2.971 0 0 0 -1.74 1.26q-.39-.135-.81-.24l-4.43-1.11-3.24-.81v-3.53a8.955 8.955 0 0 0 3-6.69h1a3.009 3.009 0 0 0 3-3v-1a2.986 2.986 0 0 0 -1-2.22v-7.78a7.008 7.008 0 0 0 -7-7h-4a5.013 5.013 0 0 0 -3.54 1.47 4.684 4.684 0 0 0 -.79 1.04 2.994 2.994 0 0 0 -1.67-.51h-2a5 5 0 0 0 -5 5v7.78a2.986 2.986 0 0 0 -1 2.22v1a3.009 3.009 0 0 0 3 3h1a8.955 8.955 0 0 0 3 6.69v3.53l-3.24.81-4.43 1.11a10.968 10.968 0 0 0 -8.33 10.67v15.19a1 1 0 0 0 1 1h58a1 1 0 0 0 1-1v-20a1 1 0 0 0 -1-1h-1.18a3 3 0 0 0 .18-1v-2a3.02 3.02 0 0 0 -.22-1.12 2.994 2.994 0 0 0 2.22-2.88zm-7-6a1 1 0 0 0 1-1v-2h1a1 1 0 0 1 1 1v2a1 1 0 0 1 -1 1h-5v-4h2v2a1 1 0 0 0 1 1zm0 12a1 1 0 0 0 1-1v-2h1a1 1 0 0 1 1 1v2a1 1 0 0 1 -1 1h-5v-4h2v2a1 1 0 0 0 1 1zm-6-8a1 1 0 0 0 -1 1v2h-2v-4h6v4h-2v-2a1 1 0 0 0 -1-1zm-2 6a1 1 0 0 0 -1 1v2h-2v-4h6v4h-2v-2a1 1 0 0 0 -1-1zm0-12a1 1 0 0 0 -1 1v2h-2v-4h6v4h-2v-2a1 1 0 0 0 -1-1zm-5-10a7 7 0 1 1 7 7 7.008 7.008 0 0 1 -7-7zm1 15h1v4h-1a1 1 0 0 1 -1-1v-2a1 1 0 0 1 1-1zm-3-3v-2a1 1 0 0 1 1-1h1v4h-1a1 1 0 0 1 -1-1zm0 10a1 1 0 0 1 1-1h1v4h-1a1 1 0 0 1 -1-1zm-4.72-.4 1.91.48a6.936 6.936 0 0 1 .81.25v1.67a3 3 0 0 0 .18 1h-3.6zm-3.9-.97-2.61 3.91-3.02-2.42 3.41-2.05zm-7.38.2-4-2.4v-2.38a8.9 8.9 0 0 0 8 0v2.38zm1.23 4.71-1.23.41-1.23-.41.12-1.37 1.11-.89 1.11.89zm9.77-21.54v1a1 1 0 0 1 -1 1h-1v-3h1a1 1 0 0 1 1 1zm-20 2h-1a1 1 0 0 1 -1-1v-1a1 1 0 0 1 1-1h1zm0-6v1h-1v-7a3.009 3.009 0 0 1 3-3h2a1 1 0 0 1 1 1 1 1 0 0 0 2 0 2.988 2.988 0 0 1 3-3h4a5 5 0 0 1 5 5v7h-1v-1a3.009 3.009 0 0 0 -3-3h-12a3.009 3.009 0 0 0 -3 3zm2 8v-8a1 1 0 0 1 1-1h12a1 1 0 0 1 1 1v8a7 7 0 0 1 -14 0zm1.84 12.07 3.41 2.05-3.02 2.42-2.61-3.91zm-5.84 24.93v-11a1 1 0 0 0 -2 0v11h-7v-14.19a8.978 8.978 0 0 1 6.81-8.73l1.91-.48 4.84 23.4zm6.24-1.78-4.52-21.84 3.45 5.17a.961.961 0 0 0 .68.44.757.757 0 0 0 .15.01.977.977 0 0 0 .62-.22l1.11-.89zm1.85 1.78 1.5-17.41 1.1.36a.986.986 0 0 0 .62 0l1.1-.36 1.5 17.41zm8.91 0h-1.08l-1.65-19.11 1.11.89a.977.977 0 0 0 .62.22.757.757 0 0 0 .15-.01.961.961 0 0 0 .68-.44l.17-.25zm.85-19.97 2.43-3.65-.75 3.62h-1.53a.8.8 0 0 0 -.15.03zm29.15 1.97v18h-28v-18zm0-9a1 1 0 0 1 -1 1h-5v-4h2v2a1 1 0 0 0 2 0v-2h1a1 1 0 0 1 1 1z"></path><path d="m50 21v-1.1c1.741-.327 3-1.477 3-2.9 0-1.682-1.757-3-4-3-1.221 0-2-.592-2-1s.779-1 2-1 2 .592 2 1a1 1 0 0 0 2 0c0-1.421-1.259-2.571-3-2.9v-1.1a1 1 0 0 0 -2 0v1.1c-1.741.327-3 1.477-3 2.9 0 1.682 1.757 3 4 3 1.221 0 2 .592 2 1s-.779 1-2 1-2-.592-2-1a1 1 0 0 0 -2 0c0 1.421 1.259 2.571 3 2.9v1.1a1 1 0 0 0 2 0z"></path><path d="m21 21a1 1 0 0 0 1-1v-1a1 1 0 0 0 -2 0v1a1 1 0 0 0 1 1z"></path><path d="m27 21a1 1 0 0 0 1-1v-1a1 1 0 0 0 -2 0v1a1 1 0 0 0 1 1z"></path><path d="m27.706 24.294a1 1 0 0 0 -1.413 0 3.318 3.318 0 0 1 -4.582 0 1 1 0 0 0 -1.411 1.415 5.239 5.239 0 0 0 7.41 0 1 1 0 0 0 -.004-1.415z"></path></g></g></svg>